<?xml version="1.0" encoding="utf-8"?>
<!-- Generator: Adobe Illustrator 23.0.4, SVG Export Plug-In . SVG Version: 6.00 Build 0)  -->
<svg version="1.1" id="Layer_1" xmlns="http://www.w3.org/2000/svg" xmlns:xlink="http://www.w3.org/1999/xlink" x="0px" y="0px"
	 viewBox="0 0 80 80" style="enable-background:new 0 0 80 80;" xml:space="preserve">
<style type="text/css">
	.st0{fill:url(#SVGID_1_);}
	.st1{fill:url(#SVGID_2_);}
	.st2{opacity:0.8;}
	.st3{fill:url(#SVGID_3_);}
	.st4{fill:url(#SVGID_4_);}
	.st5{opacity:0.65;}
	.st6{fill:url(#SVGID_5_);}
	.st7{fill:url(#SVGID_6_);}
	.st8{opacity:0.2;}
	.st9{fill:url(#SVGID_7_);}
	.st10{fill:url(#SVGID_8_);}
	.st11{opacity:0.4;}
	.st12{fill:url(#SVGID_9_);}
	.st13{fill:url(#SVGID_10_);}
	.st14{opacity:0.55;}
	.st15{fill:url(#SVGID_11_);}
	.st16{fill:url(#SVGID_12_);}
	.st17{fill:url(#SVGID_13_);}
	.st18{fill:url(#SVGID_14_);}
	.st19{fill:#DA4724;}
	.st20{fill:#F15A24;}
	.st21{fill:#8CC63F;}
	.st22{fill:#FF7A27;}
	.st23{fill:#FFFFFF;}
</style>
<g>
	<g>
		<linearGradient id="SVGID_1_" gradientUnits="userSpaceOnUse" x1="1.7933" y1="40.3379" x2="77.9933" y2="40.3379">
			<stop  offset="0" style="stop-color:#1C2335"/>
			<stop  offset="0.5357" style="stop-color:#243A70"/>
			<stop  offset="0.9946" style="stop-color:#3451A7"/>
		</linearGradient>
		<circle class="st0" cx="39.9" cy="40.3" r="38.1"/>
		<linearGradient id="SVGID_2_" gradientUnits="userSpaceOnUse" x1="28.4126" y1="32.4753" x2="136.7619" y2="146.0673">
			<stop  offset="0" style="stop-color:#FFFFFF"/>
			<stop  offset="0.5357" style="stop-color:#243A70"/>
			<stop  offset="0.9946" style="stop-color:#3451A7"/>
		</linearGradient>
		<path class="st1" d="M73.9,42.6c-1.6,11.8-9,21.4-19.9,25.7c-10.5,4.2-22.3,2.5-30.7-4.3c-5.4-4.4-8.8-11.6-9.2-19.2
			c-0.4-7.9,2.3-15.3,7.7-20.7c4.5-4.5,10.4-6.9,16.8-6.9c6.3,0,12.3,2.5,16.8,6.9c3.6,3.6,5.5,8.3,5.5,13.3s-2,9.8-5.5,13.3
			c-2.8,2.8-6.6,4.4-10.6,4.4s-7.8-1.6-10.6-4.4c-4.6-4.6-4.6-12.2,0-16.8c1.8-1.8,4.1-2.8,6.7-2.8c2.5,0,4.9,1,6.7,2.8
			c1.4,1.4,2.2,3.3,2.2,5.3s-0.8,3.9-2.2,5.3c-2.3,2.3-6,2.3-8.3,0c-0.9-0.9-1.3-2-1.3-3.2c0-0.9,0.2-1.7,0.7-2.4
			c0.1,0,0.2,0.1,0.3,0.1c0.7,0,1.3-0.6,1.3-1.3s-0.6-1.3-1.3-1.3s-1.3,0.6-1.3,1.3c0,0.3,0.1,0.5,0.2,0.7c-0.6,0.9-0.9,1.9-0.9,3
			c0,1.5,0.6,2.9,1.6,3.9c2.7,2.7,7,2.7,9.7,0c1.6-1.6,2.5-3.7,2.5-6c0-2.3-0.9-4.4-2.5-6c-2-2-4.6-3.1-7.4-3.1s-5.4,1.1-7.4,3.1
			c-5,5-5,13.2,0,18.2c3,3,7,4.7,11.3,4.7s8.3-1.7,11.3-4.7c3.8-3.8,5.8-8.7,5.8-14c0-5.3-2.1-10.3-5.8-14
			c-4.7-4.7-10.9-7.2-17.5-7.2s-12.8,2.6-17.5,7.2c-5.6,5.6-8.4,13.2-8,21.4c0.4,7.9,4,15.4,9.6,20c5.5,4.5,12.4,6.8,19.5,6.8
			c4.1,0,8.2-0.8,12.2-2.3c11.2-4.4,18.9-14.3,20.5-26.5L73.9,42.6z"/>
		<g>
			<g class="st2">
				
					<radialGradient id="SVGID_3_" cx="48.0335" cy="27.5865" r="9.6438" gradientTransform="matrix(0.8449 -0.535 0.535 0.8449 -5.5795 33.0955)" gradientUnits="userSpaceOnUse">
					<stop  offset="4.154266e-03" style="stop-color:#D99359"/>
					<stop  offset="0.3631" style="stop-color:#DB965B"/>
					<stop  offset="0.6291" style="stop-color:#E39F60"/>
					<stop  offset="0.8643" style="stop-color:#F0AF6A"/>
					<stop  offset="0.9955" style="stop-color:#FABC71"/>
				</radialGradient>
				<path class="st3" d="M61.2,23.9L38.7,38.1c-0.2,0.1-0.4,0.1-0.5-0.1c-0.1-0.2-0.1-0.4,0.1-0.5l22.4-14.2
					c0.2-0.1,0.4-0.1,0.5,0.1C61.4,23.6,61.3,23.8,61.2,23.9z"/>
				
					<radialGradient id="SVGID_4_" cx="61.3151" cy="25.5479" r="5.8636" gradientTransform="matrix(0.8449 -0.535 0.535 0.8449 -5.5795 33.0955)" gradientUnits="userSpaceOnUse">
					<stop  offset="0" style="stop-color:#FFE64C"/>
					<stop  offset="0.336" style="stop-color:#EFC451"/>
					<stop  offset="0.7681" style="stop-color:#D99359"/>
					<stop  offset="0.8504" style="stop-color:#DB965B"/>
					<stop  offset="0.9114" style="stop-color:#E39F60"/>
					<stop  offset="0.9654" style="stop-color:#F0AF6A"/>
					<stop  offset="0.9955" style="stop-color:#FABC71"/>
				</radialGradient>
				<circle class="st4" cx="62.5" cy="22.7" r="3.5"/>
			</g>
			<g class="st5">
				
					<radialGradient id="SVGID_5_" cx="48.7921" cy="18.6518" r="9.6438" gradientTransform="matrix(0.4753 -0.8798 0.8798 0.4753 5.2588 59.8148)" gradientUnits="userSpaceOnUse">
					<stop  offset="4.154266e-03" style="stop-color:#D99359"/>
					<stop  offset="0.3631" style="stop-color:#DB965B"/>
					<stop  offset="0.6291" style="stop-color:#E39F60"/>
					<stop  offset="0.8643" style="stop-color:#F0AF6A"/>
					<stop  offset="0.9955" style="stop-color:#FABC71"/>
				</radialGradient>
				<path class="st6" d="M51.5,14.2L38.9,37.6c-0.1,0.2-0.3,0.2-0.5,0.1s-0.2-0.3-0.1-0.5l12.6-23.4c0.1-0.2,0.3-0.2,0.5-0.1
					S51.6,14.1,51.5,14.2z"/>
				
					<radialGradient id="SVGID_6_" cx="62.0736" cy="16.6132" r="5.8636" gradientTransform="matrix(0.4753 -0.8798 0.8798 0.4753 5.2588 59.8148)" gradientUnits="userSpaceOnUse">
					<stop  offset="0" style="stop-color:#FFE64C"/>
					<stop  offset="0.336" style="stop-color:#EFC451"/>
					<stop  offset="0.7681" style="stop-color:#D99359"/>
					<stop  offset="0.8504" style="stop-color:#DB965B"/>
					<stop  offset="0.9114" style="stop-color:#E39F60"/>
					<stop  offset="0.9654" style="stop-color:#F0AF6A"/>
					<stop  offset="0.9955" style="stop-color:#FABC71"/>
				</radialGradient>
				<circle class="st7" cx="52.1" cy="12.5" r="3.5"/>
			</g>
			<g class="st8">
				
					<radialGradient id="SVGID_7_" cx="73.6249" cy="43.585" r="9.6438" gradientTransform="matrix(-0.8449 -0.535 -0.535 0.8449 112.7188 33.0955)" gradientUnits="userSpaceOnUse">
					<stop  offset="4.154266e-03" style="stop-color:#D99359"/>
					<stop  offset="0.3631" style="stop-color:#DB965B"/>
					<stop  offset="0.6291" style="stop-color:#E39F60"/>
					<stop  offset="0.8643" style="stop-color:#F0AF6A"/>
					<stop  offset="0.9955" style="stop-color:#FABC71"/>
				</radialGradient>
				<path class="st9" d="M15.8,23.7l22.4,14.2c0.2,0.1,0.4,0.1,0.5-0.1c0.1-0.2,0.1-0.4-0.1-0.5L16.2,23.1c-0.2-0.1-0.4-0.1-0.5,0.1
					C15.6,23.4,15.6,23.6,15.8,23.7z"/>
				
					<radialGradient id="SVGID_8_" cx="86.9065" cy="41.5464" r="5.8636" gradientTransform="matrix(-0.8449 -0.535 -0.535 0.8449 112.7188 33.0955)" gradientUnits="userSpaceOnUse">
					<stop  offset="0" style="stop-color:#FFE64C"/>
					<stop  offset="0.336" style="stop-color:#EFC451"/>
					<stop  offset="0.7681" style="stop-color:#D99359"/>
					<stop  offset="0.8504" style="stop-color:#DB965B"/>
					<stop  offset="0.9114" style="stop-color:#E39F60"/>
					<stop  offset="0.9654" style="stop-color:#F0AF6A"/>
					<stop  offset="0.9955" style="stop-color:#FABC71"/>
				</radialGradient>
				<circle class="st10" cx="14.4" cy="22.5" r="3.5"/>
			</g>
			<g class="st11">
				
					<radialGradient id="SVGID_9_" cx="63.2891" cy="45.1227" r="9.6438" gradientTransform="matrix(-0.4753 -0.8798 -0.8798 0.4753 101.8804 59.8148)" gradientUnits="userSpaceOnUse">
					<stop  offset="4.154266e-03" style="stop-color:#D99359"/>
					<stop  offset="0.3631" style="stop-color:#DB965B"/>
					<stop  offset="0.6291" style="stop-color:#E39F60"/>
					<stop  offset="0.8643" style="stop-color:#F0AF6A"/>
					<stop  offset="0.9955" style="stop-color:#FABC71"/>
				</radialGradient>
				<path class="st12" d="M25.5,14.1l12.6,23.4c0.1,0.2,0.3,0.2,0.5,0.1c0.2-0.1,0.2-0.3,0.1-0.5L26.1,13.7
					c-0.1-0.2-0.3-0.2-0.5-0.1S25.4,13.9,25.5,14.1z"/>
				
					<radialGradient id="SVGID_10_" cx="76.5706" cy="43.084" r="5.8636" gradientTransform="matrix(-0.4753 -0.8798 -0.8798 0.4753 101.8804 59.8148)" gradientUnits="userSpaceOnUse">
					<stop  offset="0" style="stop-color:#FFE64C"/>
					<stop  offset="0.336" style="stop-color:#EFC451"/>
					<stop  offset="0.7681" style="stop-color:#D99359"/>
					<stop  offset="0.8504" style="stop-color:#DB965B"/>
					<stop  offset="0.9114" style="stop-color:#E39F60"/>
					<stop  offset="0.9654" style="stop-color:#F0AF6A"/>
					<stop  offset="0.9955" style="stop-color:#FABC71"/>
				</radialGradient>
				<circle class="st13" cx="24.9" cy="12.3" r="3.5"/>
			</g>
			<g class="st14">
				
					<radialGradient id="SVGID_11_" cx="46.6041" cy="11.1074" r="9.6438" gradientTransform="matrix(-2.540361e-02 -0.9997 0.9997 -2.540361e-02 28.3061 71.199)" gradientUnits="userSpaceOnUse">
					<stop  offset="4.154266e-03" style="stop-color:#D99359"/>
					<stop  offset="0.3631" style="stop-color:#DB965B"/>
					<stop  offset="0.6291" style="stop-color:#E39F60"/>
					<stop  offset="0.8643" style="stop-color:#F0AF6A"/>
					<stop  offset="0.9955" style="stop-color:#FABC71"/>
				</radialGradient>
				<path class="st15" d="M38.2,11l0.7,26.6c0,0.2-0.1,0.4-0.3,0.4c-0.2,0-0.4-0.1-0.4-0.3l-0.7-26.6c0-0.2,0.1-0.4,0.3-0.4
					C38.1,10.7,38.2,10.8,38.2,11z"/>
				
					<radialGradient id="SVGID_12_" cx="59.8857" cy="9.0687" r="5.8636" gradientTransform="matrix(-2.540361e-02 -0.9997 0.9997 -2.540361e-02 28.3061 71.199)" gradientUnits="userSpaceOnUse">
					<stop  offset="0" style="stop-color:#FFE64C"/>
					<stop  offset="0.336" style="stop-color:#EFC451"/>
					<stop  offset="0.7681" style="stop-color:#D99359"/>
					<stop  offset="0.8504" style="stop-color:#DB965B"/>
					<stop  offset="0.9114" style="stop-color:#E39F60"/>
					<stop  offset="0.9654" style="stop-color:#F0AF6A"/>
					<stop  offset="0.9955" style="stop-color:#FABC71"/>
				</radialGradient>
				<circle class="st16" cx="37.9" cy="9.2" r="3.5"/>
			</g>
			<g>
				<radialGradient id="SVGID_13_" cx="51.738" cy="37.7602" r="9.6438" gradientUnits="userSpaceOnUse">
					<stop  offset="4.154266e-03" style="stop-color:#D99359"/>
					<stop  offset="0.3631" style="stop-color:#DB965B"/>
					<stop  offset="0.6291" style="stop-color:#E39F60"/>
					<stop  offset="0.8643" style="stop-color:#F0AF6A"/>
					<stop  offset="0.9955" style="stop-color:#FABC71"/>
				</radialGradient>
				<path class="st17" d="M65,38.1H38.5c-0.2,0-0.4-0.2-0.4-0.4s0.2-0.4,0.4-0.4H65c0.2,0,0.4,0.2,0.4,0.4S65.2,38.1,65,38.1z"/>
				<radialGradient id="SVGID_14_" cx="65.0196" cy="35.7216" r="5.8636" gradientUnits="userSpaceOnUse">
					<stop  offset="0" style="stop-color:#FFE64C"/>
					<stop  offset="0.336" style="stop-color:#EFC451"/>
					<stop  offset="0.7681" style="stop-color:#D99359"/>
					<stop  offset="0.8504" style="stop-color:#DB965B"/>
					<stop  offset="0.9114" style="stop-color:#E39F60"/>
					<stop  offset="0.9654" style="stop-color:#F0AF6A"/>
					<stop  offset="0.9955" style="stop-color:#FABC71"/>
				</radialGradient>
				<circle class="st18" cx="66.8" cy="37.8" r="3.5"/>
			</g>
		</g>
		<g>
			<path class="st19" d="M74.4,17.7c-2.6-4.3-6.3-7.1-6.3-7.1L69.3,9c0.2,0.1,3.9,3,6.8,7.7L74.4,17.7z"/>
			<polygon class="st20" points="67.4,12.2 70.6,7.5 64.9,7.5 			"/>
		</g>
		<g>
			<path class="st19" d="M5.6,64.9c2.8,4.2,6.5,6.9,6.6,6.9L11,73.5c-0.2-0.1-4.1-2.9-7.1-7.4L5.6,64.9z"/>
			<polygon class="st20" points="12.7,70.2 9.8,74.9 15.4,74.8 			"/>
		</g>
		<g>
			<rect x="38" y="38.9" class="st21" width="1" height="1"/>
			<path class="st21" d="M39,75h-1v-2h1V75z M39,71.1h-1v-2h1V71.1z M39,67.2h-1v-2h1V67.2z M39,63.3h-1v-2h1V63.3z M39,59.4h-1v-2
				h1V59.4z M39,55.5h-1v-2h1V55.5z M39,51.6h-1v-2h1V51.6z M39,47.7h-1v-2h1V47.7z M39,43.8h-1v-2h1V43.8z"/>
			<rect x="38" y="77" class="st21" width="1" height="1"/>
		</g>
	</g>
	<g>
		<circle class="st22" cx="66.9" cy="67.7" r="8.1"/>
		<path class="st23" d="M70.9,63.6v-1.3h-3h-1.3h-3v1.3h1v8.2h-1v1.3h3h1.3h3v-1.3h-1.2v-8.2H70.9z M66.7,71.8v-8.2h0.9v8.2H66.7z"
			/>
	</g>
</g>
</svg>
